name C:\Users\u0101727\Documents\MyRepositories\upper-imu-dc\Results\main_tracking\Case_10\FLX01_orientations_groundFrame.mot
datacolumns 13
datarows 32
range 3.51000000 3.82000000
endheader 
time	radius_imu_[0][0]	radius_imu_[0][1]	radius_imu_[0][2]	radius_imu_[1][0]	radius_imu_[1][1]	radius_imu_[1][2]	radius_imu_[2][0]	radius_imu_[2][1]	radius_imu_[2][2]	radius_imu_x	radius_imu_y	radius_imu_z	
          3.51000000	          0.97054131	         -0.08048119	         -0.22709546	         -0.03257578	         -0.97773816	          0.20728462	         -0.23872241	         -0.19378048	         -0.95155701	         -2.92710613	         -0.22909417	          0.08273473	
          3.52000000	          0.97101106	         -0.08150140	         -0.22471104	         -0.03405196	         -0.97765371	          0.20744561	         -0.23659669	         -0.19378013	         -0.95208785	         -2.92706065	         -0.22664648	          0.08373830	
          3.53000000	          0.97133113	         -0.08251434	         -0.22295115	         -0.03535667	         -0.97754262	          0.20775066	         -0.23508666	         -0.19391187	         -0.95243501	         -2.92683071	         -0.22484078	          0.08474629	
          3.54000000	          0.97150652	         -0.08350605	         -0.22181485	         -0.03647919	         -0.97740784	          0.20819027	         -0.23418872	         -0.19416657	         -0.95260432	         -2.92642724	         -0.22367529	          0.08574446	
          3.55000000	          0.97154797	         -0.08446630	         -0.22126905	         -0.03741937	         -0.97725262	          0.20875128	         -0.23386821	         -0.19453214	         -0.95260848	         -2.92586614	         -0.22311559	          0.08672186	
          3.56000000	          0.97147143	         -0.08538900	         -0.22125095	         -0.03818747	         -0.97708031	          0.20941772	         -0.23406191	         -0.19499432	         -0.95246640	         -2.92516742	         -0.22309702	          0.08767125	
          3.57000000	          0.97129535	         -0.08627195	         -0.22168106	         -0.03880109	         -0.97689407	          0.21017242	         -0.23469089	         -0.19553803	         -0.95220012	         -2.92435288	         -0.22353808	          0.08858906	
          3.58000000	          0.97103698	         -0.08711597	         -0.22248144	         -0.03928019	         -0.97669672	          0.21099902	         -0.23567828	         -0.19614874	         -0.95183056	         -2.92344326	         -0.22435897	          0.08947483	
          3.59000000	          0.97070929	         -0.08792335	         -0.22359103	         -0.03964227	         -0.97649063	          0.21188331	         -0.23696404	         -0.19681344	         -0.95137401	         -2.92245612	         -0.22549723	          0.09032991	
          3.60000000	          0.97031951	         -0.08869623	         -0.22497338	         -0.03989896	         -0.97627783	          0.21281371	         -0.23851230	         -0.19752109	         -0.95084031	         -2.92140501	         -0.22691572	          0.09115597	
          3.61000000	          0.96986920	         -0.08943528	         -0.22661658	         -0.04005475	         -0.97606008	          0.21378104	         -0.24031097	         -0.19826258	         -0.95023291	         -2.92029961	         -0.22860248	          0.09195370	
          3.62000000	          0.96935588	         -0.09013929	         -0.22852588	         -0.04010818	         -0.97583899	          0.21477802	         -0.24236441	         -0.19903058	         -0.94955059	         -2.91914667	         -0.23056323	          0.09272221	
          3.63000000	          0.96877659	         -0.09080537	         -0.23070825	         -0.04005544	         -0.97561608	          0.21579811	         -0.24467831	         -0.19981904	         -0.94879127	         -2.91795197	         -0.23280551	          0.09345894	
          3.64000000	          0.96813319	         -0.09142934	         -0.23314975	         -0.03989619	         -0.97539298	          0.21683366	         -0.24723758	         -0.20062208	         -0.94795799	         -2.91672354	         -0.23531544	          0.09415954	
          3.65000000	          0.96743850	         -0.09200619	         -0.23579147	         -0.03963982	         -0.97517166	          0.21787361	         -0.24998288	         -0.20143258	         -0.94706572	         -2.91547564	         -0.23803292	          0.09481770	
          3.66000000	          0.96672126	         -0.09253049	         -0.23851230	         -0.03931050	         -0.97495474	          0.21890168	         -0.25279378	         -0.20224087	         -0.94614689	         -2.91423184	         -0.24083365	          0.09542509	
          3.67000000	          0.96602811	         -0.09299722	         -0.24112487	         -0.03894942	         -0.97474546	          0.21989597	         -0.25548509	         -0.20303402	         -0.94525370	         -2.91302623	         -0.24352476	          0.09597187	
          3.68000000	          0.96542127	         -0.09340296	         -0.24338787	         -0.03861342	         -0.97454759	          0.22083026	         -0.25781926	         -0.20379619	         -0.94445558	         -2.91190159	         -0.24585723	          0.09644821	
          3.69000000	          0.96497072	         -0.09374786	         -0.24503643	         -0.03836963	         -0.97436486	          0.22167745	         -0.25953667	         -0.20451029	         -0.94383063	         -2.91090394	         -0.24755727	          0.09684706	
          3.70000000	          0.96474043	         -0.09403844	         -0.24583059	         -0.03828571	         -0.97420001	          0.22241527	         -0.26040375	         -0.20516120	         -0.94345046	         -2.91007325	         -0.24837649	          0.09716841	
          3.71000000	          0.96477105	         -0.09429071	         -0.24561369	         -0.03841751	         -0.97405346	          0.22303353	         -0.26027086	         -0.20574043	         -0.94336099	         -2.90943129	         -0.24815273	          0.09742436	
          3.72000000	          0.96506577	         -0.09453284	         -0.24435956	         -0.03879869	         -0.97392206	          0.22354079	         -0.25911911	         -0.20625073	         -0.94356660	         -2.90897100	         -0.24685917	          0.09764331	
          3.73000000	          0.96558547	         -0.09480486	         -0.24219153	         -0.03943540	         -0.97379883	          0.22396580	         -0.25707887	         -0.20670721	         -0.94402467	         -2.90865358	         -0.24462399	          0.09787013	
          3.74000000	          0.96625692	         -0.09515549	         -0.23935955	         -0.04030936	         -0.97367374	          0.22435373	         -0.25440660	         -0.20713492	         -0.94465465	         -2.90841460	         -0.24170617	          0.09816195	
          3.75000000	          0.96699185	         -0.09563721	         -0.23617849	         -0.04138906	         -0.97353493	          0.22475917	         -0.25142335	         -0.20756508	         -0.94535868	         -2.90817608	         -0.23843119	          0.09858118	
          3.76000000	          0.96770802	         -0.09630018	         -0.23295379	         -0.04264311	         -0.97337050	          0.22523638	         -0.24844065	         -0.20802918	         -0.94604498	         -2.90786190	         -0.23511394	          0.09918711	
          3.77000000	          0.96834618	         -0.09718661	         -0.22991397	         -0.04405218	         -0.97317030	          0.22582954	         -0.24569305	         -0.20855296	         -0.94664702	         -2.90741226	         -0.23198928	          0.10002854	
          3.78000000	          0.96887936	         -0.09832715	         -0.22716637	         -0.04561676	         -0.97292717	          0.22656528	         -0.24329385	         -0.20915183	         -0.94713442	         -2.90679353	         -0.22916699	          0.10113917	
          3.79000000	          0.96931323	         -0.09973961	         -0.22468617	         -0.04735906	         -0.97263760	          0.22744938	         -0.24122393	         -0.20982876	         -0.94751407	         -2.90600177	         -0.22662096	          0.10253633	
          3.80000000	          0.96967879	         -0.10143034	         -0.22233967	         -0.04931875	         -0.97230139	          0.22846808	         -0.23935477	         -0.21057514	         -0.94782246	         -2.90505960	         -0.22421355	          0.10422298	
          3.81000000	          0.97001946	         -0.10339747	         -0.21993458	         -0.05154387	         -0.97192076	          0.22959369	         -0.23749839	         -0.21137406	         -0.94811155	         -2.90400732	         -0.22174741	          0.10619221	
          3.82000000	          0.97037595	         -0.10563530	         -0.21728253	         -0.05407939	         -0.97149890	          0.23079278	         -0.23546961	         -0.21220526	         -0.94843186	         -2.90289062	         -0.21902962	          0.10843319	
